<?xml version="1.0" encoding="UTF-8"?>
<svg id="Calque_1" data-name="Calque 1" xmlns="http://www.w3.org/2000/svg" viewBox="0 0 1092.53 789.15">
  <defs>
    <style>
      .cls-1 {
        fill: #037a6c;
      }
    </style>
  </defs>
  <path class="cls-1" d="M709.37,469.66c-8.09,2.09-11.67,8.48-9.86,18.78,15.97,129.51,96.25,280.45,213.16,244.54,34.86-10.23,73.61-35.76,82.06-83.79.64-3.73.05-5.55-2.87-6.47-5.25-1.5-10.88-.92-16.16-2.15-3.61-1-5.89-3.93-6.58-8.8-2.46-14.19-5.51-38.39,11.18-38.22,33.09-.25,66.17.16,99.26-.07,6.91-.05,11.87,2.77,12.62,13.1.63,2.44.2,5.17.3,7.75,0,.14,0,.28-.02.42-.68,5.56-.75,11.17-.97,16.77,0,.1-.01.21-.02.31-2.11,17.38-23.79,9.81-33.47,11.86-4.52.44-7.68,3.55-9.71,8.95-59.99,162.09-235.21,168.09-325.6,44.74-41.66-58.09-63.34-140.36-74.63-216.51-1.55-13.8-20.68-19.98-23.75-4.58-.03.17-.05.34-.06.51-4.19,97.15.23,195.14-1.35,292.55-1,24.39-28.39,19.28-41.91,19.46-.06,0-.13,0-.19,0-7.91-.48-17.85-6.23-18.25-17.7,0-97.03,1.58-194.11-.24-291.13-.48-6.42-3.37-9.6-8.44-10.03-7.61-.65-27.39-5.91-26.76,12.11,1.41,97.4-.35,194.86.09,292.27,0,.1,0,.2.02.29.58,5.51.02,7.46-4.21,9.18-15.79,6.4-35.09,6.39-51.05.71-.07-.03-.15-.06-.22-.09-4.8-2.19-5.14-2.95-5.1-9.41.51-96.22.35-192.56-.11-288.73,0-.12,0-.24-.02-.36-1.19-10.46-4.97-17.44-15.92-15.33-4.39.85-5.44,14.61-6.4,19.83-8.29,41.16-13.52,76.51-28.28,115-76.8,200.3-291.48,253.28-370.14,48.45-2.83-8.25-7.56-12.11-14.4-12.04-5.84.09-11.68.79-17.53,1.03-8.81.46-12.23-5.52-13.33-14.58-1.5-14.8-.55-34.21,13.47-34.63,7.01-.21,14.3.73,21.33.47,15.1-.55,25.81-.73,41.24-.4,18.02.38,45.86-7.68,44.66,25.66-.27,7.37,1.87,20.19-5.28,22.29-6.57,2.07-10.9,1.2-17.61,2.08-2.94.56-3.45,2.07-2.43,5.63,23.79,77.12,103.34,102.87,161.32,79.83,85.05-33.99,145.42-198.14,138.98-259.58-1.15-10.95-17,8.11-113.11-15.34-99.46-24.27-221.39-76.46-238.37-223.21C13.91-76,462.29-137.5,452.99,424.65c-.2,12.83,14.1,12.58,13.67-.15-.03-106.95,1.33-213.93-.48-320.86-.12-8.29,2.59-14.07,9.03-14.18,10-.17,19.1-.51,28.62-.55,10.33-.03,24.03-3.94,24.1,14.79.37,106.47-1.87,212.93.03,319.39.1,5.44,2.05,9.06,6.32,10.15,6.76,1.58,13.76,1.09,20.61.81,4.35-.04,7.37-3.63,7.38-9.16.16-107.39.47-214.78,1.17-322.17,0-9.91,8.23-15.15,16.35-15.29,10.04-.17,20.17-.07,30.16,1.32,11.88,1.66,9.25,17.38,9.92,27.59,0,.06,0,.13,0,.19-.99,102.06-.13,205.55-.16,307.73-.03,5.01,4.06,5.91,7.94,6.77,7.25,2.42,16.13-1.48,15.68-12.86-.14-21.13-.24-42.28-.02-63.41,0-.06,0-.12,0-.18,5.73-88.97,24.32-181.05,66.87-253.48,130.73-221.54,448.32-40.16,306.42,225.1-.04.07-.08.15-.13.22-63.92,100.07-179.13,132.93-274.81,139.89M991.83,203.05c-.01-53.56-9.26-66.35-25.46-92.13-.06-.1-.13-.2-.2-.28-59.82-73.29-167.09-61.78-215.28,24.71-37.35,68.26-50.91,152.43-56.51,234.01-.83,14.87-2.8,29.7-3.21,44.57,0,.08,0,.16,0,.23.19,7.77,3.48,12.65,9.51,13.66.12.02.24.03.36.03,101.28,1.85,280.92-29.72,290.79-224.63,0-.06,0-.12,0-.18ZM399.51,396.47c0-.07,0-.13,0-.2-2.07-31.67-3.17-65.57-8.12-97.56-8.7-51.16-19.74-102.97-42.75-146.98-.04-.08-.08-.17-.12-.26C296.7,16.12,93.97,35.82,101.52,206.7c4.83,147.08,185.43,219.52,282.22,221.67.08,0,.16,0,.23,0,3.73-.25,7.56-1.04,11.06-2.59,4.01-1.78,4.7-4.22,4.55-8.64-.24-6.88-.06-13.77-.06-20.66Z"/>
</svg>